<?xml version="1.0" standalone="no"?>
<!DOCTYPE svg PUBLIC "-//W3C//DTD SVG 20010904//EN"
 "http://www.w3.org/TR/2001/REC-SVG-20010904/DTD/svg10.dtd">
<svg version="1.0" xmlns="http://www.w3.org/2000/svg"
 width="512.000000pt" height="512.000000pt" viewBox="0 0 512.000000 512.000000"
 preserveAspectRatio="xMidYMid meet">
<metadata>
none
</metadata>
<!-- Created by potrace 1.16, written by Peter Selinger 2001-2019
-->
<g transform="translate(0.000000,512.000000) scale(0.100000,-0.100000)"
fill="#000000" stroke="none">
<path d="M2538 4694 c-163 -29 -293 -92 -428 -206 l-75 -63 -85 0 c-69 -1 -94
-5 -135 -25 l-50 -25 53 -3 53 -3 -58 -44 c-32 -24 -94 -74 -138 -110 -108
-90 -238 -175 -330 -216 -41 -19 -75 -37 -75 -40 0 -4 21 -12 47 -19 47 -11
47 -12 27 -28 -112 -89 -194 -167 -208 -195 -21 -47 -20 -91 5 -173 61 -199
259 -405 492 -514 45 -21 101 -41 125 -45 l42 -7 -19 -26 c-29 -42 -77 -143
-92 -192 -7 -25 -29 -67 -49 -95 -111 -154 -189 -324 -230 -500 -10 -44 -30
-107 -44 -141 -51 -122 -125 -415 -126 -504 -1 -14 -22 -53 -49 -88 -26 -35
-55 -87 -64 -116 -49 -155 10 -343 146 -460 48 -42 51 -45 39 -70 -16 -35 -15
-100 1 -128 20 -36 38 -46 117 -65 96 -22 349 -23 463 -1 l78 15 13 -32 c33
-79 108 -100 361 -100 150 0 190 3 238 19 69 23 107 62 107 112 l0 34 107 -7
c95 -6 110 -9 125 -29 32 -40 139 -59 333 -59 200 0 262 14 312 68 24 27 41
36 80 41 59 7 85 25 89 57 13 96 11 94 73 107 104 22 199 95 235 184 l16 36
-51 -49 c-30 -29 -83 -65 -130 -88 -44 -21 -74 -41 -67 -44 7 -3 -7 -2 -32 0
-30 4 -52 13 -65 29 -27 31 -88 61 -152 75 -52 12 -70 37 -22 31 13 -2 69 -4
124 -5 89 -2 106 1 150 23 64 32 135 102 164 163 13 26 26 75 29 110 l5 62 18
-40 c22 -47 24 -153 5 -206 -7 -20 -25 -52 -40 -72 -38 -49 -18 -47 27 2 41
46 63 127 52 200 -7 52 -46 140 -72 164 -17 15 -18 11 -18 -76 0 -77 -4 -99
-23 -135 -52 -98 -144 -165 -244 -178 -46 -6 -178 12 -178 25 0 3 9 35 20 69
43 136 20 272 -69 406 -23 35 -25 49 -27 145 -1 61 -7 125 -16 151 -12 39 -12
51 0 90 7 25 16 99 19 165 6 125 -8 211 -43 280 -9 16 -22 64 -30 105 -9 50
-30 109 -64 177 -28 57 -51 106 -51 110 1 15 164 93 194 93 59 0 127 67 127
127 0 13 9 8 38 -24 43 -46 74 -58 132 -50 63 8 95 38 125 117 15 38 62 124
105 190 127 195 177 349 152 462 -16 67 -38 96 -154 207 -59 56 -140 149 -201
230 -56 75 -128 165 -160 201 -82 91 -84 95 -42 114 19 10 35 18 35 20 0 2
-30 11 -66 21 -46 12 -86 33 -128 64 -80 61 -202 123 -302 154 -170 54 -429
72 -596 41z m473 -43 c160 -32 311 -100 434 -195 42 -33 68 -46 91 -46 18 0
35 -4 39 -9 9 -16 -35 -24 -53 -9 -9 7 -2 -5 15 -26 18 -22 31 -42 29 -44 -2
-2 -28 9 -58 23 l-53 27 30 -26 c17 -14 53 -39 81 -55 58 -34 86 -65 215 -241
54 -72 138 -169 200 -230 59 -58 115 -121 125 -140 22 -46 22 -150 -1 -220
-26 -81 -113 -247 -115 -219 0 3 16 50 34 105 44 125 55 187 33 178 -8 -3 -18
-17 -22 -32 -8 -35 -77 -183 -82 -178 -3 2 4 21 15 43 11 21 23 48 26 61 7 20
4 22 -26 21 -18 -1 -50 -9 -70 -17 -35 -15 -38 -20 -45 -66 l-7 -51 -7 40 c-5
33 -7 27 -9 -35 -3 -123 -1 -241 6 -309 8 -70 -3 -76 -32 -19 -35 68 -45 181
-44 510 l0 316 -30 117 c-16 64 -39 136 -50 160 -36 74 -98 163 -122 176 l-23
12 21 -24 c20 -22 32 -49 35 -74 0 -5 5 -16 11 -22 7 -9 7 -13 -3 -13 -8 0 -5
-8 8 -22 26 -28 75 -126 98 -192 22 -67 33 -178 26 -256 l-6 -65 -14 85 c-7
47 -17 111 -22 142 -11 70 -56 211 -76 235 -13 17 -14 17 -9 -2 3 -11 8 -42
11 -70 l6 -50 -18 25 c-72 100 -138 141 -224 139 l-54 -2 61 -7 c94 -10 163
-64 223 -171 l25 -44 -42 37 c-47 42 -84 63 -128 71 -33 6 -101 -6 -116 -21
-6 -6 6 -6 29 1 55 14 102 2 166 -43 63 -45 111 -112 132 -184 14 -47 23 -347
10 -334 -3 3 -12 31 -21 63 -17 69 -25 80 -76 106 -32 16 -39 26 -44 60 -13
82 -78 144 -150 144 -24 0 -44 1 -44 3 0 2 15 17 33 34 l32 30 -32 -16 c-38
-19 -108 -103 -134 -161 -10 -22 -19 -58 -19 -80 l0 -40 -35 67 c-68 130 -68
230 0 342 18 31 31 56 28 56 -9 0 -31 -31 -61 -85 -23 -43 -27 -62 -27 -135 0
-77 3 -92 34 -155 19 -38 34 -73 33 -77 -1 -4 25 -23 58 -43 33 -20 60 -38 60
-40 0 -2 -17 3 -37 11 -41 18 -173 47 -180 41 -2 -3 27 -12 64 -20 115 -26
183 -57 236 -106 49 -46 121 -156 112 -171 -3 -4 2 -13 10 -20 23 -19 72 -103
79 -135 l7 -30 -21 30 c-24 36 -25 30 -5 -18 8 -20 15 -49 15 -64 l-1 -28 -13
30 c-7 17 -20 36 -28 43 -14 11 -14 9 -2 -28 15 -44 6 -107 -19 -128 -9 -8
-12 3 -12 49 -1 77 -12 87 -60 55 -47 -33 -109 -49 -150 -42 -41 8 -108 53
-163 109 -39 40 -43 47 -37 80 6 29 12 36 37 41 47 9 82 40 107 94 27 59 23
91 -16 128 -33 30 -82 44 -161 44 -69 0 -117 -16 -146 -49 -11 -11 -26 -21
-35 -22 -10 0 -12 -2 -3 -6 6 -2 12 -15 12 -28 0 -50 100 -149 163 -162 24 -5
28 -10 25 -36 -10 -100 -346 -207 -470 -150 -24 11 -57 26 -73 32 -17 6 -44
23 -60 36 l-30 25 30 27 c17 16 44 38 60 51 l30 23 -33 -18 c-163 -88 -204
-236 -96 -340 24 -24 40 -43 34 -43 -30 0 -105 48 -130 82 -33 46 -55 126 -47
175 7 41 -3 36 -20 -10 -11 -32 -11 -32 -12 19 -1 68 36 141 102 200 44 39 47
44 19 29 -50 -24 -106 -86 -128 -138 -10 -26 -22 -47 -26 -47 -12 0 -28 63
-29 114 -1 47 -2 48 -10 21 -11 -36 2 -104 30 -159 17 -32 18 -42 8 -55 -8 -9
-8 -12 -1 -8 12 7 24 -21 24 -56 0 -17 -3 -17 -37 4 -21 12 -62 45 -90 73 -48
46 -52 52 -39 71 10 16 10 29 1 66 -7 26 -12 86 -13 135 0 55 -4 90 -11 92 -6
2 -8 9 -4 15 4 6 8 18 9 27 2 8 9 44 18 80 8 36 19 126 26 200 6 74 18 147 25
161 8 14 21 59 30 100 23 105 26 131 14 124 -12 -8 34 116 57 151 15 21 15 26
4 22 -24 -7 -79 -107 -106 -193 -17 -55 -33 -148 -50 -300 -27 -247 -84 -504
-135 -609 -16 -34 -26 -52 -22 -41 11 31 16 316 5 327 -5 5 -32 5 -68 -1 -32
-5 -61 -7 -64 -5 -2 3 1 14 8 24 16 27 15 38 -1 15 -11 -13 -22 -17 -44 -12
-35 7 -48 0 -32 -19 7 -8 7 -14 -1 -19 -5 -3 -10 -1 -10 5 0 6 -6 8 -12 4 -7
-4 -10 -4 -6 0 4 5 1 14 -5 21 -26 29 -23 1 9 -72 18 -43 36 -98 39 -123 l5
-45 -13 50 c-13 49 -76 179 -84 172 -2 -3 8 -27 22 -55 37 -73 31 -76 -12 -5
-20 34 -56 83 -80 109 -35 36 -42 49 -31 56 10 8 10 9 -2 5 -8 -2 -14 -10 -13
-16 2 -6 -2 -11 -7 -11 -6 0 -4 -14 5 -32 16 -33 16 -33 -3 -11 -11 12 -23 19
-27 15 -5 -4 -6 0 -3 9 5 13 -2 15 -45 14 -29 -1 -60 2 -69 6 -68 36 18 -125
131 -243 25 -27 40 -48 34 -48 -6 0 -43 35 -83 78 -70 76 -150 211 -150 254 0
12 -12 24 -32 33 -29 12 -34 12 -39 -3 -5 -13 -7 -12 -10 7 -3 20 -13 27 -49
35 -54 13 -61 32 -26 73 30 36 217 196 196 168 -8 -11 3 -3 25 17 22 20 51 46
65 58 21 18 17 17 -29 -5 -40 -20 -62 -25 -87 -20 -33 6 -31 7 64 56 95 48
227 142 368 262 38 32 86 68 106 80 21 12 38 25 38 28 0 3 -15 11 -32 17 -60
20 96 8 227 -18 96 -18 132 -21 180 -14 l60 8 -100 6 c-55 4 -109 9 -120 12
-11 4 -33 9 -49 13 l-29 6 29 30 c114 119 296 208 490 239 85 13 313 3 425
-19z m413 -957 c21 -21 20 -41 -3 -53 -31 -17 -73 33 -48 58 15 15 33 14 51
-5z m62 -143 c-9 -17 -26 -36 -39 -42 -19 -10 -18 -8 5 14 15 14 30 38 34 54
4 15 9 23 11 16 2 -6 -3 -25 -11 -42z m-2209 7 c-3 -7 -5 -2 -5 12 0 14 2 19
5 13 2 -7 2 -19 0 -25z m2440 -10 c-3 -8 -6 -5 -6 6 -1 11 2 17 5 13 3 -3 4
-12 1 -19z m-146 -35 c22 6 49 -28 67 -82 23 -66 12 -224 -18 -271 -8 -13 -11
-12 -25 5 -12 16 -15 40 -12 113 3 106 -13 100 -22 -8 l-6 -65 -38 77 c-20 42
-53 98 -73 123 -19 26 -34 48 -32 48 52 26 81 44 89 59 8 15 14 16 30 7 12 -6
30 -9 40 -6z m-158 -20 c-7 -2 -21 -2 -30 0 -10 3 -4 5 12 5 17 0 24 -2 18 -5z
m-216 -92 c14 -8 0 -10 -62 -10 -86 1 -105 6 -84 21 17 11 121 4 146 -11z
m480 -108 c-2 -16 -4 -5 -4 22 0 28 2 40 4 28 2 -13 2 -35 0 -50z m-612 -2
c-6 -5 -21 -11 -35 -15 -21 -5 -20 -3 5 9 35 17 42 18 30 6z m146 -19 c-7 -2
-18 1 -23 6 -8 8 -4 9 13 5 13 -4 18 -8 10 -11z m-683 -251 l22 -16 -20 -40
c-15 -28 -20 -54 -18 -86 3 -46 3 -46 -19 -32 -55 36 -77 119 -52 191 11 32
11 32 38 16 15 -9 37 -24 49 -33z m-395 -36 c29 -25 76 -58 106 -72 30 -15 77
-50 105 -78 28 -27 79 -66 114 -85 77 -42 137 -92 158 -132 14 -26 17 -28 27
-14 10 13 11 7 9 -34 -6 -79 40 -145 143 -205 l30 -17 -30 23 c-109 86 -136
132 -116 198 6 20 21 48 35 62 l24 26 66 -21 c60 -19 67 -24 82 -61 9 -22 20
-78 24 -125 l8 -85 -2 113 c-2 126 11 143 33 42 16 -75 31 -63 34 28 2 61 10
70 60 71 30 1 41 -18 57 -94 l8 -40 1 55 c0 30 -3 61 -8 69 -13 20 138 97 152
78 4 -6 28 -52 53 -102 50 -102 69 -185 59 -261 -7 -62 -52 -158 -94 -201 -16
-17 -35 -51 -41 -75 -6 -23 -20 -54 -30 -68 -17 -23 -17 -21 2 35 18 54 19 65
7 115 l-13 55 -7 -71 c-10 -103 -35 -144 -161 -265 l-111 -107 7 60 c4 44 15
75 42 118 27 44 36 71 40 116 l4 59 -14 -42 c-21 -64 -59 -123 -114 -176 l-50
-49 -108 88 c-60 48 -158 137 -218 197 -167 166 -83 46 100 -144 104 -107 154
-177 154 -213 0 -7 7 -16 15 -20 18 -6 19 -2 4 27 -9 19 -8 19 11 -3 l21 -25
-4 32 c-3 31 -2 32 14 17 16 -14 20 -12 57 27 l39 43 -15 -71 c-17 -82 -11
-133 15 -111 14 11 15 10 8 -12 -4 -14 -16 -41 -27 -60 l-19 -35 6 38 c3 20 4
37 1 37 -2 0 -15 -24 -29 -52 -13 -29 -54 -97 -90 -151 -61 -90 -89 -158 -73
-174 3 -4 6 5 6 19 0 17 8 28 26 36 14 7 23 8 19 3 -3 -6 1 -14 10 -18 12 -7
13 -15 3 -46 -7 -22 -17 -36 -24 -33 -6 2 -21 -2 -32 -10 -18 -13 -20 -12 -16
9 2 12 -3 5 -12 -16 -17 -37 -34 -49 -34 -24 0 7 -6 20 -12 29 -16 20 -78 32
-78 15 0 -7 -14 3 -31 21 -25 28 -29 39 -23 65 20 90 19 152 -4 236 -27 97
-48 142 -91 191 l-31 35 30 -60 c48 -97 62 -216 39 -327 l-12 -53 -14 40 c-8
22 -25 76 -39 120 -22 72 -23 75 -18 30 10 -86 32 -160 95 -321 37 -96 68
-195 79 -256 11 -55 26 -113 34 -129 14 -29 14 -29 -12 -24 -23 5 -22 3 9 -14
20 -11 50 -36 67 -56 26 -29 32 -44 32 -81 0 -48 -11 -79 -32 -87 -10 -3 -12
8 -10 47 2 32 -2 58 -11 70 -12 16 -13 11 -9 -40 5 -76 -13 -100 -82 -110 -48
-7 -48 -6 -40 17 5 13 9 47 9 74 0 40 -7 61 -34 103 -39 61 -52 63 -22 3 28
-54 36 -120 21 -165 -6 -20 -13 -36 -15 -36 -18 0 -95 36 -114 53 l-24 22 12
-23 c7 -13 27 -32 44 -42 l32 -20 -60 0 c-78 0 -195 17 -211 31 -18 14 -27 63
-19 99 4 17 22 51 41 75 41 54 31 59 -19 8 -53 -53 -68 -127 -34 -170 19 -25
-12 -13 -45 16 l-33 29 0 199 -1 198 -67 199 c-113 330 -132 421 -107 506 13
44 15 162 4 183 -6 11 -9 3 -9 -26 0 -23 -9 -79 -20 -125 -17 -69 -23 -82 -37
-78 -24 6 -23 -11 1 -19 14 -4 20 -19 25 -66 3 -33 13 -88 21 -121 9 -33 15
-64 13 -70 -2 -5 -43 29 -91 75 -108 106 -189 150 -286 155 -62 3 -69 2 -116
-32 l-50 -36 -3 26 c-9 69 109 474 138 474 4 0 10 29 14 65 4 35 16 95 27 132
29 93 115 273 172 358 l47 70 0 -44 c0 -63 10 -45 26 49 16 89 48 175 94 248
l30 47 0 -80 c1 -146 48 -293 121 -376 l29 -34 -30 50 c-59 99 -73 156 -77
315 l-4 145 34 16 34 15 23 -75 c26 -83 95 -194 161 -256 l42 -40 -51 64 c-51
63 -140 226 -130 236 3 3 21 -18 40 -47 20 -29 93 -116 163 -193 116 -129 215
-231 170 -177 -10 12 -16 24 -14 27 3 2 40 -31 84 -75 43 -44 80 -78 83 -75 3
2 -35 48 -84 101 -133 143 -191 212 -238 284 -46 70 -100 170 -91 170 3 0 -1
13 -10 30 -28 55 -19 54 48 -5z m936 -30 c1 30 2 30 51 27 49 -4 50 -5 50 -35
0 -104 -135 -152 -208 -74 -29 30 -65 116 -44 103 5 -3 38 -2 73 2 l64 7 6
-30 6 -30 2 30z m-437 -9 c21 -9 46 -16 57 -16 11 0 26 -7 35 -15 8 -8 24 -15
37 -15 19 0 17 -4 -18 -37 -21 -21 -28 -28 -14 -17 45 37 75 52 118 59 39 6
44 4 78 -33 64 -71 139 -91 203 -52 18 11 38 31 44 45 11 25 11 25 25 5 16
-22 60 -23 100 -2 12 7 27 12 33 12 17 0 -45 -84 -92 -125 -47 -40 -85 -64
-74 -47 4 6 -13 0 -37 -13 -85 -48 -245 -51 -350 -6 -50 22 -127 86 -127 107
0 9 -17 14 -52 16 l-53 3 1 63 c2 62 14 92 37 88 7 -2 29 -10 49 -20z m848
-72 c-15 -17 -41 -19 -34 -1 2 7 14 13 25 14 17 2 18 -1 9 -13z m-100 -38 c0
-2 -11 -11 -25 -20 -25 -17 -25 -16 -13 4 11 17 38 29 38 16z m44 -595 c19
-63 21 -200 5 -287 -6 -32 -24 -106 -40 -163 -18 -65 -26 -108 -20 -114 6 -6
17 15 29 54 19 62 20 63 29 34 14 -52 7 -214 -16 -354 -24 -147 -29 -302 -11
-402 15 -89 26 -112 63 -134 70 -40 116 -89 117 -125 0 -8 -9 -1 -19 16 -20
33 -110 85 -145 83 -16 0 -14 -3 9 -11 36 -13 84 -45 107 -73 38 -45 29 -111
-18 -142 -20 -13 -20 -11 -20 37 1 34 -4 55 -16 66 -16 17 -17 16 -9 -12 7
-26 0 -99 -11 -109 -2 -3 -18 -8 -35 -11 l-30 -6 5 54 c4 59 -11 87 -70 129
l-30 22 36 -53 c37 -54 46 -102 26 -141 -10 -17 -22 -19 -113 -18 -127 1 -146
7 -175 49 -18 27 -22 43 -18 75 4 29 3 34 -3 20 -9 -19 -10 -19 -10 3 -1 13
-5 20 -11 17 -18 -11 -10 -69 14 -112 l24 -41 -47 13 c-53 16 -91 54 -92 93
-4 172 -3 278 2 270 4 -6 5 19 2 56 -3 36 -3 66 1 66 4 0 20 -27 35 -60 16
-34 31 -55 34 -48 3 7 2 65 0 128 -6 138 9 273 42 378 30 94 33 137 8 128 -14
-6 -14 -3 4 16 21 24 133 195 133 204 0 15 -26 -16 -81 -96 -34 -50 -62 -90
-64 -90 -1 0 8 29 21 65 13 36 24 80 24 96 0 23 10 40 36 64 20 18 53 49 74
68 25 23 43 52 51 79 7 24 22 54 35 68 40 45 82 121 95 171 7 27 16 46 20 42
4 -5 14 -32 23 -62z m-353 -458 c-31 -123 -148 -291 -263 -379 l-63 -49 40 55
c21 30 58 80 82 111 39 51 62 100 77 172 6 27 124 153 134 143 2 -3 -1 -27 -7
-53z m-1515 -214 c75 -35 145 -112 192 -210 70 -143 88 -266 60 -389 -11 -50
-12 -51 -41 -44 -17 3 -48 6 -70 6 -36 -1 -38 1 -24 16 29 34 46 79 51 143 l6
64 -14 -67 c-17 -76 -28 -102 -64 -140 l-26 -28 47 0 c70 0 176 -42 213 -85
33 -37 47 -85 32 -107 -4 -7 -8 -8 -8 -3 0 6 -7 2 -14 -8 -12 -16 -15 -13 -24
26 -13 48 -42 91 -75 109 -19 10 -18 7 6 -21 40 -48 53 -102 36 -148 -17 -44
-48 -63 -104 -63 -32 1 -36 3 -22 11 20 12 47 61 47 86 0 75 -64 163 -116 163
l-29 0 34 -18 c53 -27 76 -65 75 -125 0 -29 -6 -63 -14 -77 l-14 -25 -8 32
c-5 18 -13 35 -19 39 -8 4 -8 1 -1 -13 8 -14 7 -26 -1 -44 -11 -21 -21 -24
-72 -27 -119 -7 -166 29 -168 125 0 31 -3 41 -11 33 -16 -16 -11 -81 8 -118
15 -30 15 -31 -1 -26 -80 26 -93 39 -93 97 0 72 99 157 203 174 20 3 37 9 37
14 0 15 -42 9 -112 -15 l-67 -24 -52 62 c-73 86 -71 83 -64 65 4 -10 2 -20 -3
-23 -6 -3 -24 22 -41 56 -17 33 -31 56 -31 49 0 -24 59 -128 105 -184 26 -32
45 -60 41 -64 -3 -4 -37 24 -74 63 -88 90 -124 162 -130 265 -8 140 44 241
190 367 72 63 73 63 124 59 28 -3 73 -16 100 -28z m1932 -111 c72 -127 81
-274 25 -398 -17 -36 -39 -76 -50 -89 l-20 -24 -5 26 c-4 19 2 37 19 59 23 32
54 117 52 147 0 9 -9 -6 -20 -34 -10 -27 -28 -61 -38 -74 l-19 -25 -7 69 c-4
38 -5 104 -2 148 7 84 28 247 33 247 1 0 16 -24 32 -52z m-678 -291 c0 -2 -17
-19 -37 -38 l-38 -34 34 38 c33 34 41 42 41 34z m787 -243 c62 -17 110 -61
119 -110 8 -44 -2 -56 -16 -18 -12 31 -38 64 -51 64 -5 0 1 -16 13 -35 15 -27
19 -46 15 -76 -6 -46 -5 -44 -34 -53 -21 -7 -23 -4 -23 29 0 20 -7 49 -14 64
-19 36 -73 83 -114 100 -34 14 -40 29 -20 49 13 13 37 11 125 -14z m176 -81
c-7 -2 -19 -2 -25 0 -7 3 -2 5 12 5 14 0 19 -2 13 -5z"/>
<path d="M2915 4439 c98 -81 150 -155 171 -243 10 -43 12 -46 13 -19 2 61 -38
144 -98 203 -31 30 -72 63 -91 74 l-35 18 40 -33z"/>
<path d="M1898 4323 c7 -3 16 -2 19 1 4 3 -2 6 -13 5 -11 0 -14 -3 -6 -6z"/>
<path d="M2960 4215 c18 -21 47 -69 64 -105 29 -60 31 -73 31 -175 0 -95 -4
-121 -27 -187 -18 -48 -28 -94 -27 -125 l2 -48 7 55 c10 73 20 96 32 78 7 -10
8 -9 4 5 -3 9 -1 30 5 45 24 62 30 131 19 219 -14 108 -48 187 -103 239 l-41
39 34 -40z"/>
<path d="M2102 4183 c-59 -117 -82 -261 -82 -512 0 -123 -6 -233 -15 -295 -8
-55 -13 -101 -11 -103 2 -2 13 47 26 109 18 91 24 154 26 323 4 224 17 321 58
443 27 79 26 92 -2 35z"/>
<path d="M1900 4108 c-52 -108 -74 -196 -61 -240 l9 -33 1 40 c2 63 28 160 65
241 19 41 33 74 30 74 -3 0 -23 -37 -44 -82z"/>
<path d="M1976 4145 c-3 -9 -6 -22 -5 -28 0 -7 5 -1 10 12 5 13 8 26 5 28 -2
2 -6 -3 -10 -12z"/>
<path d="M2521 4130 c-24 -5 -47 -12 -50 -16 -3 -3 9 -3 27 1 66 14 175 7 233
-14 172 -65 242 -280 141 -433 -13 -21 -29 -35 -35 -31 -5 3 -7 2 -4 -4 4 -6
1 -18 -6 -28 -12 -16 -14 -16 -29 6 -22 34 -36 85 -42 153 -4 42 -13 68 -31
92 -35 45 -41 43 -10 -2 14 -20 25 -42 25 -48 0 -6 -7 0 -16 12 -32 46 -121
66 -194 42 -15 -5 -2 -6 36 -3 72 7 112 -10 143 -60 27 -44 27 -56 -1 -30 -36
33 -63 43 -113 43 -66 0 -112 -23 -180 -89 -71 -69 -151 -131 -170 -131 -10 0
-8 15 11 61 21 56 22 60 4 44 -10 -9 -27 -40 -36 -67 -9 -27 -34 -70 -55 -96
-22 -26 -48 -57 -59 -69 -10 -13 -15 -25 -11 -27 11 -7 53 25 96 72 38 42 100
82 129 82 14 0 135 -84 147 -102 3 -6 8 -9 10 -8 2 1 11 -1 19 -4 8 -3 40 -9
70 -13 l54 -8 -52 -38 c-117 -86 -22 -38 133 67 113 77 153 118 196 202 30 60
34 76 33 143 0 62 -5 87 -28 133 -33 69 -99 130 -164 153 -58 20 -163 27 -221
15z m113 -416 c23 -22 20 -43 -9 -56 -27 -12 -55 2 -55 28 0 14 27 44 40 44 5
0 16 -7 24 -16z m-146 -178 c21 -23 23 -26 6 -16 -24 15 -54 61 -53 82 0 7 5
2 10 -12 6 -14 22 -38 37 -54z m202 -1 c-13 -14 -40 -29 -59 -35 -61 -17 -69
-10 -13 9 30 10 61 26 70 35 26 26 28 18 2 -9z m-143 -31 c-3 -3 -12 -4 -19
-1 -8 3 -5 6 6 6 11 1 17 -2 13 -5z"/>
<path d="M2430 4100 c-8 -5 -10 -10 -5 -10 6 0 17 5 25 10 8 5 11 10 5 10 -5
0 -17 -5 -25 -10z"/>
<path d="M1942 4031 c-14 -46 -15 -61 -3 -61 8 0 25 90 18 97 -2 2 -9 -14 -15
-36z"/>
<path d="M2680 4037 c0 -2 21 -19 48 -37 26 -19 39 -25 30 -14 -16 18 -78 59
-78 51z"/>
<path d="M2497 4009 c-34 -8 -117 -45 -117 -52 0 -2 30 7 68 19 70 25 141 30
204 15 53 -12 38 4 -16 18 -51 13 -85 13 -139 0z"/>
<path d="M3314 4004 c-18 -14 -18 -14 6 -3 31 14 36 19 24 19 -6 0 -19 -7 -30
-16z"/>
<path d="M1534 3906 c-48 -105 -56 -254 -14 -276 28 -15 30 -13 19 18 -32 84
-28 175 11 268 27 63 14 55 -16 -10z"/>
<path d="M3765 3925 c4 -16 13 -59 21 -95 10 -46 14 -147 14 -350 1 -157 5
-303 9 -325 5 -27 7 1 7 85 0 69 1 211 3 315 3 167 1 201 -18 278 -11 49 -26
96 -32 105 -8 13 -9 10 -4 -13z"/>
<path d="M2365 3850 c-16 -16 -27 -31 -24 -33 2 -2 17 11 32 30 36 41 31 43
-8 3z"/>
<path d="M1821 3844 c0 -11 3 -14 6 -6 3 7 2 16 -1 19 -3 4 -6 -2 -5 -13z"/>
<path d="M3463 3796 c45 -17 62 -29 105 -75 l33 -36 -16 33 c-21 44 -90 92
-129 92 l-31 -1 38 -13z"/>
<path d="M3990 3696 c0 -8 4 -17 9 -20 5 -4 7 3 4 14 -6 23 -13 26 -13 6z"/>
<path d="M3056 3650 c4 -25 10 -54 15 -65 10 -24 0 48 -12 85 -6 16 -7 10 -3
-20z"/>
<path d="M4002 3635 c0 -16 2 -22 5 -12 2 9 2 23 0 30 -3 6 -5 -1 -5 -18z"/>
<path d="M3853 3570 c0 -30 2 -43 4 -27 2 15 2 39 0 55 -2 15 -4 2 -4 -28z"/>
<path d="M4061 3604 c0 -11 3 -14 6 -6 3 7 2 16 -1 19 -3 4 -6 -2 -5 -13z"/>
<path d="M3158 3563 c7 -3 16 -2 19 1 4 3 -2 6 -13 5 -11 0 -14 -3 -6 -6z"/>
<path d="M2948 3553 c6 -2 18 -2 25 0 6 3 1 5 -13 5 -14 0 -19 -2 -12 -5z"/>
<path d="M2845 3536 c-54 -17 -105 -44 -105 -56 0 -5 16 0 35 12 20 11 61 29
93 39 31 10 48 18 37 18 -11 0 -38 -6 -60 -13z"/>
<path d="M2646 3404 c-68 -59 -146 -150 -146 -169 0 -4 20 18 45 48 24 30 77
84 117 121 94 86 82 86 -16 0z"/>
<path d="M2132 3270 c0 -14 2 -19 5 -12 2 6 2 18 0 25 -3 6 -5 1 -5 -13z"/>
<path d="M3410 3227 c0 -3 17 -17 38 -33 30 -23 33 -24 17 -5 -19 22 -55 46
-55 38z"/>
<path d="M2130 3205 c10 -12 10 -18 -1 -32 -7 -10 -9 -15 -5 -11 5 4 16 2 24
-5 13 -10 15 -9 9 6 -4 10 -7 25 -7 32 0 7 -7 16 -16 19 -14 5 -15 4 -4 -9z"/>
<path d="M2672 3163 l-49 -48 46 39 c64 55 66 56 59 56 -4 0 -29 -21 -56 -47z"/>
<path d="M3370 3176 c0 -2 34 -27 77 -55 42 -28 68 -42 59 -32 -17 19 -136 94
-136 87z"/>
<path d="M2157 3121 c3 -11 11 -22 18 -24 10 -4 10 0 1 19 -13 29 -26 32 -19
5z"/>
<path d="M2106 3093 c-6 -14 -5 -15 5 -6 7 7 10 15 7 18 -3 3 -9 -2 -12 -12z"/>
<path d="M2193 3073 c4 -6 4 -13 0 -16 -5 -2 -2 -2 5 -1 6 2 12 -3 12 -11 0
-17 17 -29 24 -17 3 5 -6 20 -21 33 -14 13 -23 19 -20 12z"/>
<path d="M2117 2939 c12 -13 37 -33 55 -43 39 -22 29 -12 -32 34 -33 25 -39
27 -23 9z"/>
<path d="M2217 2869 c7 -7 15 -10 18 -7 3 3 -2 9 -12 12 -14 6 -15 5 -6 -5z"/>
<path d="M3200 2629 c1 -18 70 -169 70 -153 0 37 -30 120 -50 139 -11 10 -20
16 -20 14z"/>
<path d="M1682 2500 c0 -19 2 -27 5 -17 2 9 2 25 0 35 -3 9 -5 1 -5 -18z"/>
<path d="M1665 2283 c-4 -98 -6 -214 -4 -258 1 -44 3 -92 3 -107 1 -16 4 -28
7 -28 4 0 9 -19 13 -41 4 -23 9 -39 12 -37 3 3 -1 36 -8 74 -7 45 -11 159 -10
322 1 138 0 252 -2 252 -1 0 -6 -80 -11 -177z"/>
<path d="M2495 2370 c10 -11 20 -20 23 -20 3 0 -3 9 -13 20 -10 11 -20 20 -23
20 -3 0 3 -9 13 -20z"/>
<path d="M2120 2356 c0 -2 8 -10 18 -17 15 -13 16 -12 3 4 -13 16 -21 21 -21
13z"/>
<path d="M2570 2314 c16 -41 91 -142 144 -193 33 -33 42 -47 33 -54 -9 -6 -8
-7 3 -4 9 3 40 -21 80 -62 51 -52 56 -56 26 -18 -30 38 -34 47 -19 47 10 0 -1
9 -24 19 -27 13 -63 45 -105 96 -73 90 -127 166 -125 179 1 5 -4 11 -11 13 -9
4 -10 -2 -2 -23z"/>
<path d="M2600 2316 c0 -2 8 -10 18 -17 15 -13 16 -12 3 4 -13 16 -21 21 -21
13z"/>
<path d="M2489 2230 c59 -56 187 -150 205 -150 6 0 -16 18 -49 39 -33 22 -94
67 -135 101 -71 58 -72 59 -21 10z"/>
<path d="M2320 2185 c0 -15 32 -79 56 -112 15 -21 80 -90 144 -153 103 -101
172 -192 157 -207 -3 -2 -8 5 -12 16 -4 14 -15 21 -31 21 l-25 0 33 -39 c28
-34 34 -37 41 -23 5 12 6 8 4 -10 -3 -16 0 -25 6 -21 5 3 6 23 3 45 -13 78
-55 139 -196 283 -75 77 -145 155 -154 173 -15 29 -26 40 -26 27z"/>
<path d="M1930 2076 c0 -2 8 -10 18 -17 15 -13 16 -12 3 4 -13 16 -21 21 -21
13z"/>
<path d="M1590 1915 c0 -5 5 -17 10 -25 5 -8 10 -10 10 -5 0 6 -5 17 -10 25
-5 8 -10 11 -10 5z"/>
<path d="M1655 1781 c8 -17 19 -33 25 -36 5 -3 1 10 -11 29 -25 43 -36 48 -14
7z"/>
<path d="M1535 1690 c17 -23 75 -76 75 -68 0 2 -21 24 -47 48 -25 25 -38 34
-28 20z"/>
<path d="M2540 1405 c0 -3 23 -42 50 -88 28 -46 50 -92 50 -102 0 -33 7 -11
14 40 5 40 4 45 -5 25 -12 -28 -10 -30 -65 68 -32 56 -44 71 -44 57z"/>
<path d="M2067 1076 c15 -19 42 -44 58 -57 17 -12 5 3 -25 34 -61 64 -75 74
-33 23z"/>
<path d="M2265 850 c-32 -6 -20 -7 55 -9 52 -1 106 -4 120 -6 23 -5 24 -5 3 4
-31 14 -131 20 -178 11z"/>
<path d="M2188 833 c6 -2 18 -2 25 0 6 3 1 5 -13 5 -14 0 -19 -2 -12 -5z"/>
<path d="M2100 805 c-14 -8 -20 -14 -15 -14 6 0 21 6 35 14 14 8 21 14 15 14
-5 0 -21 -6 -35 -14z"/>
<path d="M3236 2783 c-6 -14 -5 -15 5 -6 7 7 10 15 7 18 -3 3 -9 -2 -12 -12z"/>
<path d="M3093 870 c-17 -10 -37 -29 -44 -42 -9 -18 -3 -16 27 12 22 19 43 38
49 42 17 15 0 8 -32 -12z"/>
<path d="M3263 883 c9 -2 25 -2 35 0 9 3 1 5 -18 5 -19 0 -27 -2 -17 -5z"/>
<path d="M3208 873 c6 -2 18 -2 25 0 6 3 1 5 -13 5 -14 0 -19 -2 -12 -5z"/>
<path d="M3338 873 c7 -3 16 -2 19 1 4 3 -2 6 -13 5 -11 0 -14 -3 -6 -6z"/>
<path d="M1520 1456 c0 -3 18 -15 41 -27 79 -40 148 -116 170 -189 7 -24 7
-24 8 -2 2 57 -70 157 -138 191 -43 22 -81 34 -81 27z"/>
<path d="M1440 1425 c13 -14 26 -25 28 -25 3 0 -5 11 -18 25 -13 14 -26 25
-28 25 -3 0 5 -11 18 -25z"/>
<path d="M1480 1370 c6 -11 13 -20 16 -20 2 0 0 9 -6 20 -6 11 -13 20 -16 20
-2 0 0 -9 6 -20z"/>
<path d="M1590 1360 c34 -55 52 -101 61 -155 l8 -50 -3 55 c-3 60 -22 109 -62
155 l-26 30 22 -35z"/>
<path d="M1711 1194 c0 -11 3 -14 6 -6 3 7 2 16 -1 19 -3 4 -6 -2 -5 -13z"/>
<path d="M1525 974 c-33 -18 -55 -34 -50 -34 12 0 115 58 115 65 0 7 2 8 -65
-31z"/>
<path d="M3635 757 c-4 -10 -5 -21 -1 -24 10 -10 18 4 13 24 -4 17 -4 17 -12
0z"/>
</g>
</svg>
